<mxfile host="65bd71144e">
    <diagram id="C5RBs43oDa-KdzZeNtuy" name="Page-1">
        <mxGraphModel dx="576" dy="501" grid="1" gridSize="10" guides="1" tooltips="1" connect="1" arrows="1" fold="1" page="1" pageScale="1" pageWidth="827" pageHeight="1169" background="#05020F" math="0" shadow="0">
            <root>
                <mxCell id="WIyWlLk6GJQsqaUBKTNV-0"/>
                <mxCell id="WIyWlLk6GJQsqaUBKTNV-1" parent="WIyWlLk6GJQsqaUBKTNV-0"/>
                <mxCell id="EQfiRy-q9MAmLxOAOS_v-4" value="" style="edgeStyle=orthogonalEdgeStyle;rounded=0;orthogonalLoop=1;jettySize=auto;html=1;sketch=1;curveFitting=1;jiggle=2;" parent="WIyWlLk6GJQsqaUBKTNV-1" source="EQfiRy-q9MAmLxOAOS_v-0" target="EQfiRy-q9MAmLxOAOS_v-2" edge="1">
                    <mxGeometry relative="1" as="geometry"/>
                </mxCell>
                <mxCell id="EQfiRy-q9MAmLxOAOS_v-0" value="Start" style="rounded=1;whiteSpace=wrap;html=1;sketch=1;curveFitting=1;jiggle=2;" parent="WIyWlLk6GJQsqaUBKTNV-1" vertex="1">
                    <mxGeometry x="90" y="60" width="70" height="30" as="geometry"/>
                </mxCell>
                <mxCell id="EQfiRy-q9MAmLxOAOS_v-6" value="" style="edgeStyle=orthogonalEdgeStyle;rounded=0;orthogonalLoop=1;jettySize=auto;html=1;sketch=1;curveFitting=1;jiggle=2;" parent="WIyWlLk6GJQsqaUBKTNV-1" source="EQfiRy-q9MAmLxOAOS_v-2" target="EQfiRy-q9MAmLxOAOS_v-5" edge="1">
                    <mxGeometry relative="1" as="geometry"/>
                </mxCell>
                <mxCell id="EQfiRy-q9MAmLxOAOS_v-2" value="Customer submits data/documents" style="shape=document;whiteSpace=wrap;html=1;boundedLbl=1;sketch=1;curveFitting=1;jiggle=2;" parent="WIyWlLk6GJQsqaUBKTNV-1" vertex="1">
                    <mxGeometry x="65" y="130" width="120" height="80" as="geometry"/>
                </mxCell>
                <mxCell id="EQfiRy-q9MAmLxOAOS_v-17" style="edgeStyle=orthogonalEdgeStyle;rounded=0;orthogonalLoop=1;jettySize=auto;html=1;exitX=0.5;exitY=1;exitDx=0;exitDy=0;entryX=0.5;entryY=0;entryDx=0;entryDy=0;sketch=1;curveFitting=1;jiggle=2;" parent="WIyWlLk6GJQsqaUBKTNV-1" source="EQfiRy-q9MAmLxOAOS_v-5" target="EQfiRy-q9MAmLxOAOS_v-7" edge="1">
                    <mxGeometry relative="1" as="geometry"/>
                </mxCell>
                <mxCell id="EQfiRy-q9MAmLxOAOS_v-5" value="Set Job Status: Pending Review" style="rounded=0;whiteSpace=wrap;html=1;sketch=1;curveFitting=1;jiggle=2;" parent="WIyWlLk6GJQsqaUBKTNV-1" vertex="1">
                    <mxGeometry x="65" y="240" width="120" height="60" as="geometry"/>
                </mxCell>
                <mxCell id="EQfiRy-q9MAmLxOAOS_v-18" value="No" style="edgeStyle=orthogonalEdgeStyle;rounded=0;orthogonalLoop=1;jettySize=auto;html=1;sketch=1;curveFitting=1;jiggle=2;" parent="WIyWlLk6GJQsqaUBKTNV-1" source="EQfiRy-q9MAmLxOAOS_v-7" target="EQfiRy-q9MAmLxOAOS_v-13" edge="1">
                    <mxGeometry relative="1" as="geometry"/>
                </mxCell>
                <mxCell id="EQfiRy-q9MAmLxOAOS_v-23" value="" style="edgeStyle=orthogonalEdgeStyle;rounded=0;orthogonalLoop=1;jettySize=auto;html=1;sketch=1;curveFitting=1;jiggle=2;" parent="WIyWlLk6GJQsqaUBKTNV-1" source="EQfiRy-q9MAmLxOAOS_v-7" target="EQfiRy-q9MAmLxOAOS_v-22" edge="1">
                    <mxGeometry relative="1" as="geometry"/>
                </mxCell>
                <mxCell id="EQfiRy-q9MAmLxOAOS_v-24" value="Yes" style="edgeLabel;html=1;align=center;verticalAlign=middle;resizable=0;points=[];sketch=1;curveFitting=1;jiggle=2;" parent="EQfiRy-q9MAmLxOAOS_v-23" vertex="1" connectable="0">
                    <mxGeometry x="0.28" y="1" relative="1" as="geometry">
                        <mxPoint as="offset"/>
                    </mxGeometry>
                </mxCell>
                <mxCell id="EQfiRy-q9MAmLxOAOS_v-7" value="Data/Document set complete?" style="rhombus;whiteSpace=wrap;html=1;sketch=1;curveFitting=1;jiggle=2;" parent="WIyWlLk6GJQsqaUBKTNV-1" vertex="1">
                    <mxGeometry x="55" y="320" width="140" height="130" as="geometry"/>
                </mxCell>
                <mxCell id="EQfiRy-q9MAmLxOAOS_v-20" value="" style="edgeStyle=orthogonalEdgeStyle;rounded=0;orthogonalLoop=1;jettySize=auto;html=1;sketch=1;curveFitting=1;jiggle=2;" parent="WIyWlLk6GJQsqaUBKTNV-1" source="EQfiRy-q9MAmLxOAOS_v-13" target="EQfiRy-q9MAmLxOAOS_v-19" edge="1">
                    <mxGeometry relative="1" as="geometry"/>
                </mxCell>
                <mxCell id="EQfiRy-q9MAmLxOAOS_v-13" value="Notify customer for need for additional data/document" style="rounded=0;whiteSpace=wrap;html=1;sketch=1;curveFitting=1;jiggle=2;" parent="WIyWlLk6GJQsqaUBKTNV-1" vertex="1">
                    <mxGeometry x="260" y="355" width="120" height="60" as="geometry"/>
                </mxCell>
                <mxCell id="EQfiRy-q9MAmLxOAOS_v-21" style="edgeStyle=orthogonalEdgeStyle;rounded=0;orthogonalLoop=1;jettySize=auto;html=1;exitX=0.5;exitY=0;exitDx=0;exitDy=0;entryX=1;entryY=0.5;entryDx=0;entryDy=0;sketch=1;curveFitting=1;jiggle=2;" parent="WIyWlLk6GJQsqaUBKTNV-1" source="EQfiRy-q9MAmLxOAOS_v-19" target="EQfiRy-q9MAmLxOAOS_v-2" edge="1">
                    <mxGeometry relative="1" as="geometry"/>
                </mxCell>
                <mxCell id="EQfiRy-q9MAmLxOAOS_v-19" value="Set Job Status:&lt;br&gt;Pending Additional Data/Document" style="rounded=0;whiteSpace=wrap;html=1;sketch=1;curveFitting=1;jiggle=2;" parent="WIyWlLk6GJQsqaUBKTNV-1" vertex="1">
                    <mxGeometry x="260" y="250" width="120" height="60" as="geometry"/>
                </mxCell>
                <mxCell id="EQfiRy-q9MAmLxOAOS_v-26" value="" style="edgeStyle=orthogonalEdgeStyle;rounded=0;orthogonalLoop=1;jettySize=auto;html=1;sketch=1;curveFitting=1;jiggle=2;" parent="WIyWlLk6GJQsqaUBKTNV-1" source="EQfiRy-q9MAmLxOAOS_v-22" target="EQfiRy-q9MAmLxOAOS_v-25" edge="1">
                    <mxGeometry relative="1" as="geometry"/>
                </mxCell>
                <mxCell id="EQfiRy-q9MAmLxOAOS_v-22" value="Set Job Status: Pending Submission" style="rounded=0;whiteSpace=wrap;html=1;sketch=1;curveFitting=1;jiggle=2;" parent="WIyWlLk6GJQsqaUBKTNV-1" vertex="1">
                    <mxGeometry x="65" y="480" width="120" height="60" as="geometry"/>
                </mxCell>
                <mxCell id="EQfiRy-q9MAmLxOAOS_v-32" value="" style="edgeStyle=orthogonalEdgeStyle;rounded=0;orthogonalLoop=1;jettySize=auto;html=1;sketch=1;curveFitting=1;jiggle=2;" parent="WIyWlLk6GJQsqaUBKTNV-1" source="EQfiRy-q9MAmLxOAOS_v-25" target="EQfiRy-q9MAmLxOAOS_v-31" edge="1">
                    <mxGeometry relative="1" as="geometry"/>
                </mxCell>
                <mxCell id="EQfiRy-q9MAmLxOAOS_v-25" value="Submit Data/Documents" style="rounded=0;whiteSpace=wrap;html=1;sketch=1;curveFitting=1;jiggle=2;" parent="WIyWlLk6GJQsqaUBKTNV-1" vertex="1">
                    <mxGeometry x="65" y="585" width="120" height="60" as="geometry"/>
                </mxCell>
                <mxCell id="EQfiRy-q9MAmLxOAOS_v-35" value="" style="edgeStyle=orthogonalEdgeStyle;rounded=0;orthogonalLoop=1;jettySize=auto;html=1;sketch=1;curveFitting=1;jiggle=2;" parent="WIyWlLk6GJQsqaUBKTNV-1" source="EQfiRy-q9MAmLxOAOS_v-28" target="EQfiRy-q9MAmLxOAOS_v-34" edge="1">
                    <mxGeometry relative="1" as="geometry"/>
                </mxCell>
                <mxCell id="EQfiRy-q9MAmLxOAOS_v-28" value="Set Job Status:&lt;br&gt;Application Submitted" style="rounded=0;whiteSpace=wrap;html=1;sketch=1;curveFitting=1;jiggle=2;" parent="WIyWlLk6GJQsqaUBKTNV-1" vertex="1">
                    <mxGeometry x="400" y="585" width="120" height="60" as="geometry"/>
                </mxCell>
                <mxCell id="EQfiRy-q9MAmLxOAOS_v-33" value="" style="edgeStyle=orthogonalEdgeStyle;rounded=0;orthogonalLoop=1;jettySize=auto;html=1;sketch=1;curveFitting=1;jiggle=2;" parent="WIyWlLk6GJQsqaUBKTNV-1" source="EQfiRy-q9MAmLxOAOS_v-31" target="EQfiRy-q9MAmLxOAOS_v-28" edge="1">
                    <mxGeometry relative="1" as="geometry"/>
                </mxCell>
                <mxCell id="EQfiRy-q9MAmLxOAOS_v-31" value="Application Result Document Received" style="shape=document;whiteSpace=wrap;html=1;boundedLbl=1;sketch=1;curveFitting=1;jiggle=2;" parent="WIyWlLk6GJQsqaUBKTNV-1" vertex="1">
                    <mxGeometry x="230" y="575" width="120" height="80" as="geometry"/>
                </mxCell>
                <mxCell id="EQfiRy-q9MAmLxOAOS_v-37" value="" style="edgeStyle=orthogonalEdgeStyle;rounded=0;orthogonalLoop=1;jettySize=auto;html=1;sketch=1;curveFitting=1;jiggle=2;" parent="WIyWlLk6GJQsqaUBKTNV-1" source="EQfiRy-q9MAmLxOAOS_v-34" target="EQfiRy-q9MAmLxOAOS_v-36" edge="1">
                    <mxGeometry relative="1" as="geometry"/>
                </mxCell>
                <mxCell id="EQfiRy-q9MAmLxOAOS_v-34" value="Notify Customer application submitted with document attached" style="rounded=0;whiteSpace=wrap;html=1;sketch=1;curveFitting=1;jiggle=2;" parent="WIyWlLk6GJQsqaUBKTNV-1" vertex="1">
                    <mxGeometry x="400" y="480" width="120" height="60" as="geometry"/>
                </mxCell>
                <mxCell id="EQfiRy-q9MAmLxOAOS_v-36" value="End" style="rounded=1;whiteSpace=wrap;html=1;sketch=1;curveFitting=1;jiggle=2;" parent="WIyWlLk6GJQsqaUBKTNV-1" vertex="1">
                    <mxGeometry x="415" y="415" width="90" height="20" as="geometry"/>
                </mxCell>
            </root>
        </mxGraphModel>
    </diagram>
</mxfile>